<svg id="e78Uvkon2ZL1" xmlns="http://www.w3.org/2000/svg" xmlns:xlink="http://www.w3.org/1999/xlink" viewBox="0 0 512 512" shape-rendering="geometricPrecision" text-rendering="geometricPrecision" project-id="3f51b6a32386437f8c30131c2416c2bb" export-id="160bda37eaad4fa581f4004d03f6e297" cached="false"><defs><linearGradient id="e78Uvkon2ZL3-fill" x1="-0.78" y1="6.34" x2="9.66" y2="6.34" spreadMethod="pad" gradientUnits="userSpaceOnUse" gradientTransform="translate(0 0)"><stop id="e78Uvkon2ZL3-fill-0" offset="4%" stop-color="#efefef"/><stop id="e78Uvkon2ZL3-fill-1" offset="21%" stop-color="#d8dbe6"/><stop id="e78Uvkon2ZL3-fill-2" offset="45%" stop-color="#f7f7f7"/></linearGradient><linearGradient id="e78Uvkon2ZL4-fill" x1="-0.78" y1="11.27" x2="9.66" y2="11.27" spreadMethod="pad" gradientUnits="userSpaceOnUse" gradientTransform="translate(0 0)"><stop id="e78Uvkon2ZL4-fill-0" offset="4%" stop-color="#efefef"/><stop id="e78Uvkon2ZL4-fill-1" offset="21%" stop-color="#d8dbe6"/><stop id="e78Uvkon2ZL4-fill-2" offset="45%" stop-color="#f7f7f7"/></linearGradient><linearGradient id="e78Uvkon2ZL5-fill" x1="-0.78" y1="11.27" x2="9.66" y2="11.27" spreadMethod="pad" gradientUnits="userSpaceOnUse" gradientTransform="translate(0 0)"><stop id="e78Uvkon2ZL5-fill-0" offset="4%" stop-color="#efefef"/><stop id="e78Uvkon2ZL5-fill-1" offset="21%" stop-color="#d8dbe6"/><stop id="e78Uvkon2ZL5-fill-2" offset="45%" stop-color="#f7f7f7"/></linearGradient><linearGradient id="e78Uvkon2ZL6-fill" x1="-122.35" y1="320.119985" x2="157.46" y2="232.919985" spreadMethod="pad" gradientUnits="userSpaceOnUse" gradientTransform="translate(0 0)"><stop id="e78Uvkon2ZL6-fill-0" offset="0%" stop-color="#61646b"/><stop id="e78Uvkon2ZL6-fill-1" offset="100%" stop-color="#484b4e"/></linearGradient><linearGradient id="e78Uvkon2ZL7-fill" x1="113.47" y1="203.25" x2="293.47" y2="203.25" spreadMethod="pad" gradientUnits="userSpaceOnUse" gradientTransform="translate(0 0)"><stop id="e78Uvkon2ZL7-fill-0" offset="2%" stop-color="#efefef"/><stop id="e78Uvkon2ZL7-fill-1" offset="5%" stop-color="#d8dbe6"/><stop id="e78Uvkon2ZL7-fill-2" offset="11%" stop-color="#f7f7f7"/><stop id="e78Uvkon2ZL7-fill-3" offset="89%" stop-color="#efefef"/><stop id="e78Uvkon2ZL7-fill-4" offset="94%" stop-color="#d1d4de"/><stop id="e78Uvkon2ZL7-fill-5" offset="100%" stop-color="#efefef"/></linearGradient><linearGradient id="e78Uvkon2ZL8-fill" x1="201.8" y1="359.17" x2="201.8" y2="342.16" spreadMethod="pad" gradientUnits="userSpaceOnUse" gradientTransform="translate(0 0)"><stop id="e78Uvkon2ZL8-fill-0" offset="16%" stop-color="rgba(216,219,230,0)"/><stop id="e78Uvkon2ZL8-fill-1" offset="32%" stop-color="rgba(216,219,230,0.7)"/><stop id="e78Uvkon2ZL8-fill-2" offset="52%" stop-color="rgba(216,219,230,0)"/></linearGradient><linearGradient id="e78Uvkon2ZL9-fill" x1="0" y1="-5.26" x2="0" y2="3.01" spreadMethod="pad" gradientUnits="userSpaceOnUse" gradientTransform="translate(0 0)"><stop id="e78Uvkon2ZL9-fill-0" offset="20%" stop-color="#b3b3b3"/><stop id="e78Uvkon2ZL9-fill-1" offset="100%" stop-color="#ededed"/></linearGradient><linearGradient id="e78Uvkon2ZL10-fill" x1="9.56" y1="-2.64" x2="9.56" y2="3.53" spreadMethod="pad" gradientUnits="userSpaceOnUse" gradientTransform="translate(0 0)"><stop id="e78Uvkon2ZL10-fill-0" offset="20%" stop-color="#b3b3b3"/><stop id="e78Uvkon2ZL10-fill-1" offset="100%" stop-color="#ededed"/></linearGradient></defs><g transform="matrix(1.953962 0 0 1.552165-132.835307-59.508587)"><rect width="8.7" height="12.68" rx="1.47" ry="1.47" transform="translate(123.2 92.42)" fill="url(#e78Uvkon2ZL3-fill)"/><rect width="8.7" height="22.55" rx="1.97" ry="1.97" transform="translate(123.2 115.27)" fill="url(#e78Uvkon2ZL4-fill)"/><rect width="8.7" height="22.55" rx="1.97" ry="1.97" transform="translate(123.2 142.98)" fill="url(#e78Uvkon2ZL5-fill)"/><rect width="286.5" height="132" rx="12.27" ry="12.27" transform="matrix(0 1-1 0 267.86 60)" fill="url(#e78Uvkon2ZL6-fill)"/><path d="M255.53,51h-107.46c-11.733417.032959-21.237041,9.536583-21.27,21.27v262c.032959,11.733417,9.536583,21.237041,21.27,21.27h107.46c11.733417-.032959,21.237041-9.536583,21.27-21.27v-262c-.032959-11.733417-9.536583-21.237041-21.27-21.27ZM267.8,334.23c0,6.776534-5.493466,12.27-12.27,12.27h-107.46c-6.776534,0-12.27-5.493466-12.27-12.27v-262c.022041-6.760908,5.509056-12.230036,12.27-12.23h15.73c.552285,0,1,.447715,1,1v1.11c.010996,4.629107,3.760893,8.379004,8.39,8.39h57.23c4.629107-.010996,8.379004-3.760893,8.39-8.39v-1.11c0-.552285.447715-1,1-1h15.73c6.772628.00552,12.260002,5.497369,12.26,12.27Z" fill="url(#e78Uvkon2ZL7-fill)"/><path d="M255.53,351h-107.46c-11.733417-.032959-21.237041-9.536583-21.27-21.27v4.5c.032959,11.733417,9.536583,21.237041,21.27,21.27h107.46c11.733417-.032959,21.237041-9.536583,21.27-21.27v-4.5c-.032959,11.733417-9.536583,21.237041-21.27,21.27Z" fill="url(#e78Uvkon2ZL8-fill)"/><circle r="1.72" transform="translate(217.71 62.59)" fill="url(#e78Uvkon2ZL9-fill)"/><rect width="19.13" height="2.56" rx="1.28" ry="1.28" transform="translate(192.24 61.31)" fill="url(#e78Uvkon2ZL10-fill)"/></g><g transform="matrix(.5 0 0 0.5 133.591485 127.968911)"><g transform="matrix(10 0 0 10-2397.354656-2304.000075)"><path d="M29.01,5.03L23.244,2.254c-.667413-.321799-1.465352-.186202-1.989.338L2.38,19.8c-.476886.432721-.512703,1.170098-.08,1.647.025.027.05.053.077.077l1.541,1.4c.415492.378151,1.04168.405907,1.489.066L28.142,5.75c.350275-.265798.820868-.310282,1.214745-.114828s.643074.597122.643255,1.036828v-.067c-.000038-.671589-.38484-1.283773-.99-1.575Z" transform="translate(239.3745 239.999684)" fill="#0065a9"/><path d="M29.01,26.97l-5.766,2.777c-.667545.320859-1.464916.185358-1.989-.338L2.38,12.2c-.476886-.432721-.512703-1.170098-.08-1.647.025-.027.05-.053.077-.077l1.541-1.4c.415979-.379801,1.04411-.407587,1.492-.066L28.142,26.25c.350275.265798.820868.310282,1.214745.114828s.643074-.597122.643255-1.036828v.072c-.002195.669714-.386629,1.279372-.99,1.57Z" transform="translate(239.3745 239.999942)" fill="#007acc"/><path d="M23.244,29.747c-.667545.320859-1.464916.185358-1.989-.338.293609.289778.732323.375303,1.113278.217027s.6299-.529505.631722-.942027v-25.368c.000343-.414561-.249304-.788428-.632344-.946987s-.823891-.070526-1.116656.222987c.523705-.523979,1.321293-.659918,1.989-.339l5.765,2.772c.607107.289795.994039.902274.995,1.575v18.8c.000161.672177-.385125,1.284903-.991,1.576l-5.765,2.771Z" transform="translate(239.3745 239.999942)" fill="#1f9cf0"/></g><rect width="216.721501" height="55.165474" rx="0" ry="0" transform="matrix(.88831 0 0 0.444727 303.118529 370.658659)" fill="#1f9cf0" stroke-width="0"/></g></svg>
